<svg width="123" height="185" viewBox="0 0 123 185" fill="none" xmlns="http://www.w3.org/2000/svg">
<path d="M25.5121 92.5C25.5515 74.7458 32.6218 57.7301 45.1759 45.1759C57.73 32.6218 74.7458 25.5515 92.5 25.5121C110.254 25.5515 127.27 32.6218 139.824 45.1759C152.378 57.7301 159.448 74.7458 159.488 92.5C159.492 93.3377 159.165 94.1431 158.578 94.741C157.992 95.3389 157.192 95.681 156.355 95.6927C155.932 95.6987 155.512 95.6205 155.119 95.4627C154.727 95.3049 154.369 95.0706 154.068 94.7736C153.767 94.4765 153.528 94.1225 153.365 93.7322C153.201 93.3419 153.117 92.9231 153.117 92.5C153.098 76.4307 146.704 61.0255 135.34 49.6642C123.976 38.3029 108.569 31.9134 92.5 31.8976C76.4321 31.9134 61.0268 38.3033 49.665 49.6651C38.3033 61.0268 31.9133 76.4321 31.8975 92.5C31.9133 108.568 38.3033 123.973 49.665 135.335C61.0268 146.697 76.4321 153.087 92.5 153.102C102.83 153.134 112.994 150.513 122.02 145.489C131.046 140.465 138.63 133.208 144.046 124.412C144.518 123.753 145.222 123.298 146.017 123.139C146.811 122.979 147.637 123.128 148.326 123.555C149.015 123.982 149.515 124.655 149.726 125.438C149.937 126.22 149.843 127.054 149.462 127.769C143.479 137.493 135.099 145.516 125.125 151.07C115.15 156.624 103.916 159.523 92.5 159.488C74.7458 159.449 57.73 152.378 45.1759 139.824C32.6218 127.27 25.5515 110.254 25.5121 92.5ZM92.5 185C117.023 184.968 140.532 175.213 157.872 157.872C175.213 140.532 184.968 117.023 185 92.5C184.982 79.5639 182.257 66.7748 177 54.9551C171.743 43.1355 164.07 32.5471 154.475 23.871C153.849 23.3131 153.029 23.0238 152.191 23.0657C151.354 23.1075 150.566 23.4772 149.999 24.0948C149.448 24.724 149.164 25.5427 149.206 26.3779C149.247 27.2131 149.612 27.9994 150.223 28.5706C159.16 36.6518 166.305 46.5156 171.198 57.5265C176.09 68.5374 178.622 80.4511 178.629 92.5C178.606 115.336 169.524 137.229 153.377 153.377C137.229 169.524 115.336 178.606 92.5 178.629C69.6655 178.602 47.7742 169.519 31.6278 153.372C15.4814 137.226 6.39819 115.334 6.37055 92.5C6.39819 69.6655 15.4814 47.7742 31.6278 31.6278C47.7742 15.4814 69.6655 6.3982 92.5 6.37057C93.3468 6.37057 94.1588 6.03419 94.7576 5.43543C95.3563 4.83668 95.6927 4.02459 95.6927 3.17782C95.6888 2.33364 95.3507 1.52539 94.7523 0.929853C94.154 0.334321 93.3442 -9.2167e-06 92.5 1.90571e-10C67.976 0.0276416 44.4643 9.78203 27.1231 27.1232C9.78202 44.4643 0.0276416 67.976 0 92.5C0.0276416 117.024 9.78202 140.536 27.1231 157.877C44.4643 175.218 67.976 184.972 92.5 185ZM84.175 133.11C84.5937 133.216 85.0295 133.235 85.4559 133.168C85.8824 133.1 86.2906 132.946 86.6561 132.716C87.0215 132.486 87.3364 132.184 87.5818 131.829C87.8272 131.474 87.9981 131.072 88.0839 130.649C88.1698 130.226 88.1689 129.79 88.0813 129.367C87.9937 128.944 87.8213 128.544 87.5744 128.189C87.3276 127.835 87.0114 127.534 86.6451 127.306C86.2787 127.077 85.8699 126.925 85.4431 126.859C77.5382 125.216 70.4385 120.906 65.3345 114.65C60.2304 108.394 57.4324 100.574 57.4096 92.5C57.4215 83.1971 61.1223 74.2786 67.7004 67.7005C74.2786 61.1223 83.1971 57.4215 92.5 57.4097C101.803 57.4215 110.721 61.1223 117.3 67.7005C123.878 74.2786 127.578 83.1971 127.59 92.5C127.584 99.7539 125.334 106.828 121.149 112.753C116.963 118.677 111.047 123.162 104.212 125.591C103.768 125.687 103.35 125.876 102.985 126.146C102.62 126.416 102.317 126.761 102.096 127.157C101.875 127.554 101.741 127.993 101.703 128.445C101.665 128.897 101.724 129.353 101.876 129.78C102.028 130.208 102.269 130.598 102.584 130.926C102.898 131.253 103.279 131.509 103.701 131.677C104.122 131.846 104.575 131.922 105.028 131.902C105.482 131.881 105.926 131.764 106.33 131.559C114.402 128.692 121.391 123.401 126.34 116.409C131.289 109.417 133.956 101.066 133.976 92.5C133.964 81.5036 129.59 70.9609 121.815 63.1853C114.039 55.4096 103.496 51.036 92.5 51.0242C81.5062 51.04 70.9673 55.4153 63.1949 63.1905C55.4224 70.9658 51.0509 81.5061 51.0391 92.5C51.0594 102.046 54.364 111.295 60.3979 118.693C66.4318 126.091 74.8275 131.187 84.175 133.125V133.11ZM92.5 108.434C96.7261 108.43 100.778 106.75 103.768 103.763C106.758 100.777 108.441 96.7261 108.449 92.5C108.454 90.3678 108.028 88.2566 107.196 86.2935C107.034 85.9066 106.798 85.5554 106.5 85.2602C106.202 84.965 105.849 84.7316 105.461 84.5735C105.073 84.4154 104.657 84.3357 104.238 84.339C103.818 84.3423 103.404 84.4286 103.018 84.5927C102.242 84.925 101.628 85.55 101.31 86.332C100.991 87.1141 100.994 87.9902 101.317 88.7702C101.823 89.9483 102.082 91.2178 102.078 92.5C102.074 95.0377 101.063 97.4701 99.2675 99.2632C97.4717 101.056 95.0377 102.063 92.5 102.063C89.9649 102.059 87.5347 101.051 85.7421 99.2579C83.9495 97.4653 82.9406 95.0351 82.9367 92.5C82.9406 89.9649 83.9495 87.5347 85.7421 85.7421C87.5347 83.9495 89.9649 82.9406 92.5 82.9367C93.3468 82.9367 94.1588 82.6003 94.7576 82.0016C95.3563 81.4028 95.6927 80.5907 95.6927 79.7439C95.6927 78.8972 95.3563 78.0851 94.7576 77.4863C94.1588 76.8876 93.3468 76.5512 92.5 76.5512C88.2725 76.5591 84.2205 78.2419 81.2312 81.2312C78.2419 84.2205 76.5591 88.2725 76.5512 92.5C76.5591 96.7275 78.2419 100.78 81.2312 103.769C84.2205 106.758 88.2725 108.441 92.5 108.449V108.434Z" fill="#FFFCE9"/>
</svg>
