<svg width="166" height="52" viewBox="0 0 166 52" fill="none" xmlns="http://www.w3.org/2000/svg">
<path d="M56.985 38.35C53.205 38.35 50.3117 37.335 48.305 35.305C46.2983 33.2517 45.295 30.4633 45.295 26.94C45.295 23.2067 46.2633 20.3017 48.2 18.225C50.16 16.1483 53.0767 15.11 56.95 15.11C58.3033 15.11 59.5167 15.215 60.59 15.425C61.6867 15.6117 62.7133 15.88 63.67 16.23V20.36C61.6867 19.5433 59.5633 19.135 57.3 19.135C54.7333 19.135 52.89 19.7767 51.77 21.06C50.65 22.3433 50.09 24.3033 50.09 26.94C50.09 31.8867 52.5167 34.36 57.37 34.36C58.4667 34.36 59.5517 34.2667 60.625 34.08C61.6983 33.87 62.725 33.5667 63.705 33.17V37.335C62.7483 37.6383 61.7217 37.8833 60.625 38.07C59.5517 38.2567 58.3383 38.35 56.985 38.35ZM72.1963 38.35C71.1463 38.35 70.1663 38.1633 69.2563 37.79C68.3697 37.3933 67.6463 36.8217 67.0863 36.075C66.5497 35.305 66.2813 34.3483 66.2813 33.205C66.2813 31.5717 66.853 30.265 67.9963 29.285C69.163 28.305 70.878 27.815 73.1413 27.815H78.0413V27.36C78.0413 26.3333 77.7497 25.61 77.1663 25.19C76.6063 24.77 75.463 24.56 73.7363 24.56C71.8463 24.56 70.0263 24.8517 68.2763 25.435V22.11C69.0463 21.8067 69.9797 21.5617 71.0763 21.375C72.1963 21.165 73.4097 21.06 74.7163 21.06C77.213 21.06 79.138 21.5733 80.4913 22.6C81.868 23.6033 82.5563 25.225 82.5563 27.465V38H78.4613L78.2163 36.495C77.563 37.0783 76.758 37.5333 75.8013 37.86C74.8447 38.1867 73.643 38.35 72.1963 38.35ZM73.4913 35.235C74.5413 35.235 75.4513 35.06 76.2213 34.71C76.9913 34.36 77.598 33.9167 78.0413 33.38V30.755H73.2463C71.403 30.755 70.4813 31.5133 70.4813 33.03C70.4813 34.5 71.4847 35.235 73.4913 35.235ZM92.2062 38.35C90.9695 38.35 89.7912 38.2567 88.6712 38.07C87.5512 37.9067 86.6529 37.6967 85.9762 37.44V33.52C86.7929 33.8467 87.7145 34.1033 88.7412 34.29C89.7679 34.4533 90.7129 34.535 91.5762 34.535C92.7429 34.535 93.5595 34.465 94.0262 34.325C94.5162 34.185 94.7612 33.87 94.7612 33.38C94.7612 32.82 94.3879 32.4117 93.6412 32.155C92.9179 31.8983 91.8329 31.5367 90.3862 31.07C88.8695 30.5567 87.7029 29.9383 86.8862 29.215C86.0695 28.4917 85.6612 27.4183 85.6612 25.995C85.6612 24.4083 86.2329 23.195 87.3762 22.355C88.5429 21.4917 90.4095 21.06 92.9762 21.06C94.0029 21.06 94.9712 21.1417 95.8812 21.305C96.7912 21.445 97.5612 21.62 98.1912 21.83V25.715C97.5612 25.4117 96.8379 25.19 96.0212 25.05C95.2045 24.8867 94.4462 24.805 93.7462 24.805C92.7429 24.805 91.9379 24.875 91.3312 25.015C90.7479 25.155 90.4562 25.4583 90.4562 25.925C90.4562 26.4383 90.7712 26.8 91.4012 27.01C92.0545 27.22 93.0579 27.535 94.4112 27.955C95.7412 28.3517 96.7795 28.7833 97.5262 29.25C98.2729 29.7167 98.7979 30.2767 99.1012 30.93C99.4045 31.56 99.5562 32.3533 99.5562 33.31C99.5562 36.67 97.1062 38.35 92.2062 38.35ZM108.903 38.35C106.99 38.35 105.566 37.8483 104.633 36.845C103.723 35.8417 103.268 34.4767 103.268 32.75V25.05H100.923V21.41H103.268V17.84L107.993 16.44V21.41H112.193L111.913 25.05H107.993V32.435C107.993 33.345 108.203 33.975 108.623 34.325C109.043 34.6517 109.696 34.815 110.583 34.815C111.236 34.815 111.913 34.6983 112.613 34.465V37.72C112.1 37.93 111.54 38.0817 110.933 38.175C110.326 38.2917 109.65 38.35 108.903 38.35Z" fill="white"/>
<path d="M115.038 38V14.41H119.763V27.395L125.958 21.41H131.348L124.663 28.2L131.733 38H126.728L121.688 30.685L119.763 32.54V38H115.038ZM134.794 38V21.41H139.169L139.379 23.125C140.125 22.6583 141.047 22.2383 142.144 21.865C143.264 21.4683 144.36 21.2 145.434 21.06V24.63C144.804 24.7233 144.115 24.8633 143.369 25.05C142.622 25.2367 141.91 25.4467 141.234 25.68C140.557 25.9133 139.985 26.1583 139.519 26.415V38H134.794ZM155.462 38.35C152.359 38.35 150.084 37.6033 148.637 36.11C147.19 34.5933 146.467 32.4583 146.467 29.705C146.467 26.9517 147.19 24.8283 148.637 23.335C150.107 21.8183 152.382 21.06 155.462 21.06C158.565 21.06 160.84 21.8183 162.287 23.335C163.757 24.8283 164.492 26.9517 164.492 29.705C164.492 32.4583 163.769 34.5933 162.322 36.11C160.875 37.6033 158.589 38.35 155.462 38.35ZM155.462 34.325C156.979 34.325 158.064 33.9867 158.717 33.31C159.37 32.61 159.697 31.4083 159.697 29.705C159.697 28.0017 159.37 26.8117 158.717 26.135C158.064 25.435 156.979 25.085 155.462 25.085C153.969 25.085 152.895 25.435 152.242 26.135C151.589 26.8117 151.262 28.0017 151.262 29.705C151.262 31.4083 151.589 32.61 152.242 33.31C152.895 33.9867 153.969 34.325 155.462 34.325Z" fill="#D5D5D6"/>
<path d="M19.6945 8.47906C19.948 7.69876 21.052 7.69876 21.3055 8.47906L24.9124 19.5799C25.0258 19.9289 25.351 20.1652 25.7179 20.1652H37.39C38.2105 20.1652 38.5516 21.215 37.8878 21.6973L28.4449 28.558C28.148 28.7737 28.0238 29.156 28.1372 29.5049L31.7441 40.6058C31.9976 41.3861 31.1045 42.035 30.4408 41.5527L20.9978 34.692C20.701 34.4763 20.299 34.4763 20.0022 34.692L10.5592 41.5527C9.89545 42.035 9.00236 41.3861 9.2559 40.6058L12.8628 29.5049C12.9762 29.156 12.852 28.7737 12.5551 28.558L3.11215 21.6973C2.44839 21.215 2.78952 20.1652 3.60998 20.1652H15.2821C15.649 20.1652 15.9742 19.9289 16.0876 19.5799L19.6945 8.47906Z" fill="white"/>
<path d="M33.4714 21.5883H8.07617L27.0481 23.5704C27.769 23.6457 28.0684 24.5328 27.5406 25.0295L13.0459 38.6716L33.9766 23.115C34.6314 22.6283 34.2872 21.5883 33.4714 21.5883Z" fill="#454FC7"/>
</svg>
